RBDS012runT45_grf
version=1
nRows=24
nColumns=19
inDegrees=no
endheader
time	ground_force_r_vx	ground_force_r_vy	ground_force_r_vz	ground_force_r_px	ground_force_r_py	ground_force_r_pz	ground_force_r_mx	ground_force_r_my	ground_force_r_mz	ground_force_l_vx	ground_force_l_vy	ground_force_l_vz	ground_force_l_px	ground_force_l_py	ground_force_l_pz	ground_force_l_mx	ground_force_l_my	ground_force_l_mz
     14.99900000	    250.33361481	    725.72875463	      8.76875048	      1.96262608	      0.00000000	      1.05503946	     -0.00000000	      3.73474692	     -0.00000000	      0.00000000	      0.00000000	      0.00000000	      0.00000000	      0.00000000	      0.00000000	      0.00000000	      0.00000000	      0.00000000
     15.00000000	    246.13120310	    700.01669973	      8.73829011	      1.95918617	      0.00000000	      1.05538244	     -0.00000000	      3.43160117	     -0.00000000	      0.00000000	      0.00000000	      0.00000000	      0.00000000	      0.00000000	      0.00000000	      0.00000000	      0.00000000	      0.00000000
     15.00100000	    241.25204405	    674.73813215	      8.56489487	      1.95596664	      0.00000000	      1.05578521	     -0.00000000	      3.11952369	     -0.00000000	      0.00000000	      0.00000000	      0.00000000	      0.00000000	      0.00000000	      0.00000000	      0.00000000	      0.00000000	      0.00000000
     15.00200000	    236.37288501	    649.45956458	      8.39149963	      1.95274712	      0.00000000	      1.05618798	     -0.00000000	      2.80744621	     -0.00000000	      0.00000000	      0.00000000	      0.00000000	      0.00000000	      0.00000000	      0.00000000	      0.00000000	      0.00000000	      0.00000000
     15.00300000	    231.49372596	    624.18099700	      8.21810439	      1.94952760	      0.00000000	      1.05659075	     -0.00000000	      2.49536874	     -0.00000000	      0.00000000	      0.00000000	      0.00000000	      0.00000000	      0.00000000	      0.00000000	      0.00000000	      0.00000000	      0.00000000
     15.00400000	    226.24377390	    599.35555936	      7.96284116	      1.94646276	      0.00000000	      1.05702992	     -0.00000000	      2.17863033	     -0.00000000	      0.00000000	      0.00000000	      0.00000000	      0.00000000	      0.00000000	      0.00000000	      0.00000000	      0.00000000	      0.00000000
     15.00500000	    220.80842535	    574.75668669	      7.66664393	      1.94347527	      0.00000000	      1.05748728	     -0.00000000	      1.85956146	     -0.00000000	      0.00000000	      0.00000000	      0.00000000	      0.00000000	      0.00000000	      0.00000000	      0.00000000	      0.00000000	      0.00000000
     15.00600000	    215.37307679	    550.15781401	      7.37044671	      1.94048778	      0.00000000	      1.05794465	     -0.00000000	      1.54049259	     -0.00000000	      0.00000000	      0.00000000	      0.00000000	      0.00000000	      0.00000000	      0.00000000	      0.00000000	      0.00000000	      0.00000000
     15.00700000	    209.79600919	    525.86281233	      7.04069214	      1.93758037	      0.00000000	      1.05841780	     -0.00000000	      1.21989791	     -0.00000000	      0.00000000	      0.00000000	      0.00000000	      0.00000000	      0.00000000	      0.00000000	      0.00000000	      0.00000000	      0.00000000
     15.00800000	    203.93550351	    502.17555263	      6.64382287	      1.93483313	      0.00000000	      1.05892253	     -0.00000000	      0.89625163	     -0.00000000	      0.00000000	      0.00000000	      0.00000000	      0.00000000	      0.00000000	      0.00000000	      0.00000000	      0.00000000	      0.00000000
     15.00900000	    198.07499784	    478.48829293	      6.24695360	      1.93208589	      0.00000000	      1.05942726	     -0.00000000	      0.57260535	     -0.00000000	      0.00000000	      0.00000000	      0.00000000	      0.00000000	      0.00000000	      0.00000000	      0.00000000	      0.00000000	      0.00000000
     15.01000000	    192.21449217	    454.80103323	      5.85008434	      1.92933865	      0.00000000	      1.05993199	     -0.00000000	      0.24895907	     -0.00000000	      0.00000000	      0.00000000	      0.00000000	      0.00000000	      0.00000000	      0.00000000	      0.00000000	      0.00000000	      0.00000000
     15.01100000	    186.06663418	    432.23791536	      5.37574963	      1.92683627	      0.00000000	      1.06047501	     -0.00000000	     -0.07637003	     -0.00000000	      0.00000000	      0.00000000	      0.00000000	      0.00000000	      0.00000000	      0.00000000	      0.00000000	      0.00000000	      0.00000000
     15.01200000	    179.91877618	    409.67479748	      4.90141493	      1.92433388	      0.00000000	      1.06101802	     -0.00000000	     -0.40169914	     -0.00000000	      0.00000000	      0.00000000	      0.00000000	      0.00000000	      0.00000000	      0.00000000	      0.00000000	      0.00000000	      0.00000000
     15.01300000	    173.77091819	    387.11167961	      4.42708023	      1.92183150	      0.00000000	      1.06156103	     -0.00000000	     -0.72702825	     -0.00000000	      0.00000000	      0.00000000	      0.00000000	      0.00000000	      0.00000000	      0.00000000	      0.00000000	      0.00000000	      0.00000000
     15.01400000	    167.52516424	    365.42363541	      3.91667589	      1.91949298	      0.00000000	      1.06212247	     -0.00000000	     -1.05124650	     -0.00000000	      0.00000000	      0.00000000	      0.00000000	      0.00000000	      0.00000000	      0.00000000	      0.00000000	      0.00000000	      0.00000000
     15.01500000	    161.23046231	    344.17312805	      3.38823673	      1.91723640	      0.00000000	      1.06269310	     -0.00000000	     -1.37490932	     -0.00000000	      0.00000000	      0.00000000	      0.00000000	      0.00000000	      0.00000000	      0.00000000	      0.00000000	      0.00000000	      0.00000000
     15.01600000	    154.93576038	    322.92262069	      2.85979758	      1.91497982	      0.00000000	      1.06326374	     -0.00000000	     -1.69857215	     -0.00000000	      0.00000000	      0.00000000	      0.00000000	      0.00000000	      0.00000000	      0.00000000	      0.00000000	      0.00000000	      0.00000000
     15.01700000	    148.63841789	    302.16308882	      2.32086963	      1.91280430	      0.00000000	      1.06383964	     -0.00000000	     -2.02043377	     -0.00000000	      0.00000000	      0.00000000	      0.00000000	      0.00000000	      0.00000000	      0.00000000	      0.00000000	      0.00000000	      0.00000000
     15.01800000	    142.33579427	    282.38550792	      1.76096410	      1.91079089	      0.00000000	      1.06442604	     -0.00000000	     -2.33869300	     -0.00000000	      0.00000000	      0.00000000	      0.00000000	      0.00000000	      0.00000000	      0.00000000	      0.00000000	      0.00000000	      0.00000000
     15.01900000	    136.03317065	    262.60792703	      1.20105857	      1.90877748	      0.00000000	      1.06501244	     -0.00000000	     -2.65695223	      0.00000000	      0.00000000	      0.00000000	      0.00000000	      0.00000000	      0.00000000	      0.00000000	      0.00000000	      0.00000000	      0.00000000
     15.02000000	    129.73054702	    242.83034613	      0.64115304	      1.90676407	      0.00000000	      1.06559884	     -0.00000000	     -2.97521146	      0.00000000	      0.00000000	      0.00000000	      0.00000000	      0.00000000	      0.00000000	      0.00000000	      0.00000000	      0.00000000	      0.00000000
     15.02100000	    123.55298868	    224.65446663	      0.07090634	      1.90498784	      0.00000000	      1.06618842	     -0.00000000	     -3.28405240	      0.00000000	      0.00000000	      0.00000000	      0.00000000	      0.00000000	      0.00000000	      0.00000000	      0.00000000	      0.00000000	      0.00000000
     15.02200000	    117.37543033	    206.47858713	     -0.49934035	      1.90321162	      0.00000000	      1.06677799	     -0.00000000	     -3.59289334	      0.00000000	      0.00000000	      0.00000000	      0.00000000	      0.00000000	      0.00000000	      0.00000000	      0.00000000	      0.00000000	      0.00000000
